# xmcd
#
# Track frame offsets: 
#        150
#        16935
#        33490
#        48217
#        58890
#        78125
#        95920
#        111562
#        127882
#        139955
#
# Disc length: 2075 seconds
#
# Revision: 0
# Processed by: cddbd v1.5PL3 Copyright (c) Steve Scherf et al.
# Submitted via: ExactAudioCopy v0.90b4
#
DISCID=8708190a
DTITLE=Ronnie Milsap - The Ultimate Ronnie Milsap
DYEAR=1900
DGENRE=Country
TTITLE0=Smokey Mountain Rain
TTITLE1=Any Day Now
TTITLE2=A Woman In Love
TTITLE3=Pure Love
TTITLE4=Lost In The Fifties Tonight (In The Still Of The Night)
TTITLE5=She Keeps The Home Fires Burning
TTITLE6=I Wouldn't Have Missed It For The World
TTITLE7=It Was Almost Like A Song
TTITLE8=My Heart
TTITLE9=Only One Love In My Life
EXTD=
EXTT0=
EXTT1=
EXTT2=
EXTT3=
EXTT4=
EXTT5=
EXTT6=
EXTT7=
EXTT8=
EXTT9=
PLAYORDER=
